{"title":"Baat Bann Gayi 2013 CamRip x264 MP3 [TMB] - Hindi","uid":9036538,"size":301051250,"categoryP":"video","categoryS":"movies","magnet":"?xt=urn:btih:3dff9c67e389c82d3d01ae5c8135e49ac057d474&amp;dn=Baat+Bann+Gayi+2013+CamRip+x264+MP3+%5BTMB%5D+-+Hindi&amp;tr=udp%3A%2F%2Ftracker.openbittorrent.com%3A80&amp;tr=udp%3A%2F%2Fopen.demonii.com%3A1337&amp;tr=udp%3A%2F%2Ftracker.coppersurfer.tk%3A6969&amp;tr=udp%3A%2F%2Fexodus.desync.com%3A6969","seeders":1,"leechers":0,"uploader":"SJonam","files":2,"time":1381518701,"description":"TMB Exclusive Release...\n &lt;a href=&quot;\nhttp://i198.photobucket.com/albums/aa296/taneja_manmohan/baat-ban-gayi-movie-stills-wallpapers_zpsc1b874af.jpg&quot; rel=&quot;nofollow&quot; target=&quot;_NEW&quot;&gt;\nhttp://i198.photobucket.com/albums/aa296/taneja_manmohan/baat-ban-gayi-movie-stills-wallpapers_zpsc1b874af.jpg&lt;/a&gt; &lt;a href=&quot;\nhttp://t1.someimage.com/kfV68tF.jpg&quot; rel=&quot;nofollow&quot; target=&quot;_NEW&quot;&gt;\nhttp://t1.someimage.com/kfV68tF.jpg&lt;/a&gt; &lt;a href=&quot;\nhttp://t1.someimage.com/I4J1rI2.jpg&quot; rel=&quot;nofollow&quot; target=&quot;_NEW&quot;&gt;\nhttp://t1.someimage.com/I4J1rI2.jpg&lt;/a&gt; &lt;a href=&quot;\nhttp://t1.someimage.com/UUv70CB.jpg&quot; rel=&quot;nofollow&quot; target=&quot;_NEW&quot;&gt;\nhttp://t1.someimage.com/UUv70CB.jpg&lt;/a&gt; &lt;a href=&quot;\nhttp://t1.someimage.com/hhwDDaN.jpg&quot; rel=&quot;nofollow&quot; target=&quot;_NEW&quot;&gt;\nhttp://t1.someimage.com/hhwDDaN.jpg&lt;/a&gt; &lt;a href=&quot;\nhttp://t1.someimage.com/JWKIfgf.jpg&quot; rel=&quot;nofollow&quot; target=&quot;_NEW&quot;&gt;\nhttp://t1.someimage.com/JWKIfgf.jpg&lt;/a&gt;\n\nMedia Info - \nGeneral\nComplete name                  : Baat Ban Gayi 2013 x264 MP3 [TMB].avi\nFormat                         : AVI\nFormat/Info                    : Audio Video Interleave\nFile size                      : 284 MiB\nDuration                       : 1h 43mn\nOverall bit rate               : 384 Kbps\nWriting application            : Lavf54.63.104\n\nVideo\nID                             : 0\nFormat                         : AVC\nFormat/Info                    : Advanced Video Codec\nFormat profile                 : &lt;a class=&quot;__cf_email__&quot; href=&quot;/cdn-cgi/l/email-protection&quot; data-cfemail=&quot;cd80aca4a38d81fce3fe&quot;&gt;[email&amp;#160;protected]&lt;/a&gt;&lt;script cf-hash='f9e31' type=&quot;text/javascript&quot;&gt;\n/* &lt;![CDATA[ */!function(){try{var t=&quot;currentScript&quot;in document?document.currentScript:function(){for(var t=document.getElementsByTagName(&quot;script&quot;),e=t.length;e--;)if(t[e].getAttribute(&quot;cf-hash&quot;))return t[e]}();if(t&amp;&amp;t.previousSibling){var e,r,n,i,c=t.previousSibling,a=c.getAttribute(&quot;data-cfemail&quot;);if(a){for(e=&quot;&quot;,r=parseInt(a.substr(0,2),16),n=2;a.length-n;n+=2)i=parseInt(a.substr(n,2),16)^r,e+=String.fromCharCode(i);e=document.createTextNode(e),c.parentNode.replaceChild(e,c)}}}catch(u){}}();/* ]]&gt; */&lt;/script&gt;\nFormat settings, CABAC         : Yes\nFormat settings, ReFrames      : 1 frame\nCodec ID                       : H264\nDuration                       : 1h 43mn\nBit rate                       : 115 Kbps\nWidth                          : 384 pixels\nHeight                         : 176 pixels\nDisplay aspect ratio           : 2.2:1\nFrame rate mode                : Variable\nFrame rate                     : 25.000 fps\nColor space                    : YUV\nChroma subsampling             : 4:2:0\nBit depth                      : 8 bits\nScan type                      : Progressive\nBits/(Pixel*Frame)             : 0.068\nStream size                    : 85.1 MiB (30%)\nWriting library                : x264 core 129\n\nAudio\nID                             : 1\nFormat                         : MPEG Audio\nFormat version                 : Version 1\nFormat profile                 : Layer 3\nMode                           : Joint stereo\nMode extension                 : MS Stereo\nCodec ID                       : 55\nCodec ID/Hint                  : MP3\nDuration                       : 1h 43mn\nBit rate mode                  : Constant\nBit rate                       : 256 Kbps\nChannel count                  : 2 channels\nSampling rate                  : 48.0 KHz\nCompression mode               : Lossy\nStream size                    : 189 MiB (67%)\nAlignment                      : Aligned on interleaves\nInterleave, duration           : 24 ms (0.60 video frame)\n\nSample in Torrent...\n\nIf you are looking for better print then wait for screener...\n\nRipper : Manojvb\n\nSeeding will be very slow for first 6 hours ;)\n\n\nEnjoy this TMB Release...","torrent":{"xt":"urn:btih:3dff9c67e389c82d3d01ae5c8135e49ac057d474","amp;dn":"Baat+Bann+Gayi+2013+CamRip+x264+MP3+%5BTMB%5D+-+Hindi","amp;tr":["udp%3A%2F%2Ftracker.openbittorrent.com%3A80","udp%3A%2F%2Fopen.demonii.com%3A1337","udp%3A%2F%2Ftracker.coppersurfer.tk%3A6969","udp%3A%2F%2Fexodus.desync.com%3A6969"],"infoHash":"3dff9c67e389c82d3d01ae5c8135e49ac057d474","infoHashBuffer":{"type":"Buffer","data":[61,255,156,103,227,137,200,45,61,1,174,92,129,53,228,154,192,87,212,116]},"announce":[],"urlList":[]}}